<svg xmlns="http://www.w3.org/2000/svg" viewBox="0 0 410 404" fill="none">
  <path d="M399.641 59.525L215.643 388.545C211.85 395.336 202.151 395.344 198.348 388.56L10.174 59.539C6.019 52.276 12.239 43.397 20.507 44.735L204.447 74.445C205.624 74.635 206.825 74.633 208.002 74.439L389.211 44.751C397.472 43.397 403.7 52.261 399.641 59.525Z" fill="url(#paint0_linear)"/>
  <path d="M292.965 1.574L156.845 28.29C154.607 28.729 152.831 30.472 152.343 32.704L143.96 70.969C143.434 73.373 145.546 75.53 147.959 75.062L185.66 67.744C189.188 67.059 192.378 70.267 191.674 73.792L180.473 129.849C179.719 133.622 183.266 136.835 186.922 135.723L210.209 128.645C213.866 127.534 217.412 130.749 216.657 134.521L198.859 223.462C197.746 229.026 205.148 232.06 208.272 227.332L210.359 224.173L321.287 44.594C323.143 41.589 320.578 37.82 317.113 38.51L278.095 46.269C274.43 46.998 271.311 43.566 272.321 39.969L297.786 13.021C298.797 9.424 296.63 0.851 292.965 1.574Z" fill="url(#paint1_linear)"/>
  <defs>
    <linearGradient id="paint0_linear" x1="6.000" y1="32.999" x2="235.000" y2="344.000" gradientUnits="userSpaceOnUse">
      <stop stop-color="#41D1FF"/>
      <stop offset="1" stop-color="#BD34FE"/>
    </linearGradient>
    <linearGradient id="paint1_linear" x1="194.651" y1="8.818" x2="236.076" y2="292.989" gradientUnits="userSpaceOnUse">
      <stop stop-color="#FFEA83"/>
      <stop offset="0.083" stop-color="#FFDD35"/>
      <stop offset="1" stop-color="#FFA800"/>
    </linearGradient>
  </defs>
</svg>
